# xmcd CD database file
#
# Track frame offsets:
#	150
#	18582
#	34320
#	50785
#	67391
#	78976
#	97583
#	112758
#	123683
#	145518
#
# Disc length: 2208 seconds
#
# Revision: 0
# Processed by: cddbd v1.4PL0 Copyright (c) Steve Scherf et al.
# Submitted via: CDex 1.50Beta7
#
DISCID=85089e0a
DTITLE=Mark Knopfler and Dave Edmunds - The Booze Brothers By Brewers Droop
DYEAR=1999
DGENRE=Blues
TTITLE0=Where Are You Tonight
TTITLE1=Roller Coaster
TTITLE2=You Make Me Feel So Good
TTITLE3=My Old Lady
TTITLE4=Sugar Baby
TTITLE5=Rock Steady Woman
TTITLE6=Louise
TTITLE7=What's The Time
TTITLE8=Midnight Special
TTITLE9=Dreaming
EXTD=YEAR: 1999
EXTT0=
EXTT1=
EXTT2=
EXTT3=
EXTT4=
EXTT5=
EXTT6=
EXTT7=
EXTT8=
EXTT9=
PLAYORDER=
